# xmcd
#
# Track frame offsets: 
#        150
#        12795
#        29295
#        47843
#        62251
#        74761
#        89371
#        106756
#        119004
#        138032
#        152477
#        169457
#        188672
#        211472
#        227185
#        242110
#        259818
#        273881
#        292954
#        309319
#
# Disc length: 4238 seconds
#
# Revision: 0
# Processed by: cddbd v1.5.2PL0 Copyright (c) Steve Scherf et al.
# Submitted via: ExactAudioCopy v1.3
#
DISCID=16108c14
DTITLE=Various Artist - TSP Country and Americana Volume 171
DYEAR=2017
DGENRE=Country
TTITLE0=Jerry Pitman's New Whiskey Revival - I Won't Leave 'Til The Dr
TTITLE0=inkin's Done
TTITLE1=The DSP Band (Per Oyvind Mathisen) - Grandpa On The Floor
TTITLE2=Darrell Goldman - Between The Lines
TTITLE3=Jeff Keith Band - The Best I Do
TTITLE4=The Scatterlings (Lesley E Kornfeld) - Fire and Whiskey
TTITLE5=Dennis Ledbetter - Tell Me I'm Wrong
TTITLE6=Louis Sheridan - Treat Her Like A Lady
TTITLE7=Richard Scott - You Don't Know Jack
TTITLE8=Maria Carmi - Soloman's Song
TTITLE9=Jeff Keith Band - Just Another Outlaw
TTITLE10=Art Carter - Little Dove
TTITLE11=Mark Mills - Ann Radcliffe
TTITLE12=Flint Westrock - Cowboy Blues
TTITLE13=Left Arm Tan - El Camino
TTITLE14=Christi Mynatt - Shout For Joy
TTITLE15=Michael Nerenberg - Most Beautiful Things
TTITLE16=Cornbread and Ice Tea - I Don't Live There Anymore
TTITLE17=Howard Delnick - What Did I Do
TTITLE18=Doug Spence - Where Tears Won't Fall
TTITLE19=Flink Westrock - Everything But You
EXTD=
EXTT0=
EXTT1=
EXTT2=
EXTT3=
EXTT4=
EXTT5=
EXTT6=
EXTT7=
EXTT8=
EXTT9=
EXTT10=
EXTT11=
EXTT12=
EXTT13=
EXTT14=
EXTT15=
EXTT16=
EXTT17=
EXTT18=
EXTT19=
PLAYORDER=
